<svg width="45" height="44" viewBox="0 0 45 44" fill="none" xmlns="http://www.w3.org/2000/svg">
<path d="M33.8947 0H10.6316C4.96338 0 0.368408 4.59497 0.368408 10.2632V33.5263C0.368408 39.1945 4.96338 43.7895 10.6316 43.7895H33.8947C39.5629 43.7895 44.1579 39.1945 44.1579 33.5263V10.2632C44.1579 4.59497 39.5629 0 33.8947 0Z" fill="url(#paint0_linear_41_97)"/>
<path fill-rule="evenodd" clip-rule="evenodd" d="M27.3467 5.64657C27.6262 5.99347 27.7685 6.46164 28.0535 7.39764L34.2791 27.8489C31.9406 26.6354 29.4308 25.7857 26.8361 25.3289L22.7827 11.631C22.7585 11.5494 22.7149 11.4749 22.6557 11.4137C22.5965 11.3526 22.5233 11.3067 22.4425 11.2799C22.3617 11.2532 22.2757 11.2463 22.1917 11.26C22.1076 11.2737 22.0282 11.3075 21.9601 11.3585C21.8689 11.427 21.8024 11.5231 21.7704 11.6326L17.7659 25.3221C15.1595 25.7767 12.6382 26.6278 10.2895 27.8458L16.5454 7.39302C16.8316 6.45839 16.9742 5.99124 17.2537 5.64503C17.5004 5.33928 17.8213 5.10183 18.1858 4.95535C18.5987 4.78943 19.0872 4.78943 20.0646 4.78943H24.533C25.5116 4.78943 26.0008 4.78943 26.4141 4.95569C26.7789 5.10255 27.1 5.3403 27.3467 5.64657Z" fill="#31274A"/>
<path fill-rule="evenodd" clip-rule="evenodd" d="M28.0915 28.8221C27.0652 29.6998 25.0167 30.2981 22.6572 30.2981C19.7611 30.2981 17.3337 29.3965 16.6897 28.1841C16.4594 28.8791 16.4078 29.6743 16.4078 30.1825C16.4078 30.1825 16.2561 32.6773 17.9912 34.4125C17.9913 33.9798 18.1632 33.5649 18.4692 33.2589C18.7751 32.953 19.19 32.781 19.6227 32.781C21.167 32.781 21.1653 34.1283 21.1637 35.2215V35.319C21.1637 36.9782 22.1777 38.4005 23.6199 38.9999C23.3979 38.543 23.2829 38.0416 23.2836 37.5336C23.2836 35.9512 24.2127 35.362 25.2924 34.6774C26.1515 34.1326 27.1059 33.5273 27.7638 32.3128C28.1181 31.6587 28.303 30.9263 28.3018 30.1825C28.3018 29.7082 28.228 29.2511 28.0915 28.8221Z" fill="#FF5D01"/>
<path fill-rule="evenodd" clip-rule="evenodd" d="M28.0915 28.8221C27.0652 29.6998 25.0167 30.2981 22.6572 30.2981C19.7611 30.2981 17.3337 29.3965 16.6897 28.1841C16.4594 28.8791 16.4078 29.6743 16.4078 30.1825C16.4078 30.1825 16.2561 32.6773 17.9912 34.4125C17.9913 33.9798 18.1632 33.5649 18.4692 33.2589C18.7751 32.953 19.19 32.781 19.6227 32.781C21.167 32.781 21.1653 34.1283 21.1637 35.2215V35.319C21.1637 36.9782 22.1777 38.4005 23.6199 38.9999C23.3979 38.543 23.2829 38.0416 23.2836 37.5336C23.2836 35.9512 24.2127 35.362 25.2924 34.6774C26.1515 34.1326 27.1059 33.5273 27.7638 32.3128C28.1181 31.6587 28.303 30.9263 28.3018 30.1825C28.3018 29.7082 28.228 29.2511 28.0915 28.8221Z" fill="url(#paint1_linear_41_97)"/>
<defs>
<linearGradient id="paint0_linear_41_97" x1="22.2631" y1="0" x2="22.2631" y2="43.7895" gradientUnits="userSpaceOnUse">
<stop offset="0.193" stop-color="#FCB3B2"/>
<stop offset="1" stop-color="#C587EE"/>
</linearGradient>
<linearGradient id="paint1_linear_41_97" x1="32.7125" y1="21.6834" x2="26.636" y2="34.4041" gradientUnits="userSpaceOnUse">
<stop stop-color="#FF1639"/>
<stop offset="1" stop-color="#FF1639" stop-opacity="0"/>
</linearGradient>
</defs>
</svg>
