<svg width="45" height="44" viewBox="0 0 45 44" fill="none" xmlns="http://www.w3.org/2000/svg">
<path d="M33.9473 0.210571H10.6842C5.01599 0.210571 0.421021 4.80554 0.421021 10.4737V33.7369C0.421021 39.4051 5.01599 44 10.6842 44H33.9473C39.6155 44 44.2105 39.4051 44.2105 33.7369V10.4737C44.2105 4.80554 39.6155 0.210571 33.9473 0.210571Z" fill="#242938"/>
<path fill-rule="evenodd" clip-rule="evenodd" d="M35.2848 11.9849L24.4846 5.57384C23.8545 5.19827 23.1346 5 22.4011 5C21.6675 5 20.9476 5.19827 20.3175 5.57384L9.51728 11.9849C8.22823 12.7504 7.4342 14.1641 7.4342 15.6945V28.5168C7.4342 30.0469 8.2284 31.4615 9.51763 32.2267L20.3179 38.6366C20.9479 39.012 21.6677 39.2102 22.4011 39.2103C23.1345 39.2102 23.8542 39.012 24.4842 38.6366L35.2845 32.2267C36.5735 31.4615 37.3682 30.0469 37.3682 28.5168V15.6947C37.3682 14.1641 36.5735 12.7502 35.2848 11.9849Z" fill="#242938"/>
<path fill-rule="evenodd" clip-rule="evenodd" d="M20.6954 37.9803L9.89514 31.5703C8.83872 30.9432 8.18239 29.7732 8.18239 28.5167V15.6947C8.18239 14.4382 8.83872 13.2682 9.89462 12.6414L20.6954 6.23038C21.2115 5.92346 21.8007 5.76115 22.4011 5.7605C22.999 5.7605 23.5888 5.923 24.107 6.23038L34.9073 12.6414C35.7975 13.1698 36.3979 14.0848 36.5667 15.1109C36.2085 14.3465 35.4006 14.1387 34.4593 14.6884L24.2417 20.9998C22.9677 21.7445 22.0282 22.5803 22.0274 24.1165V36.7067C22.0267 37.6266 22.3982 38.2224 22.9689 38.3951C22.7814 38.4276 22.5924 38.4502 22.4011 38.4502C21.8007 38.4495 21.2115 38.2872 20.6954 37.9803ZM35.2848 11.9848L24.4846 5.57405C23.8545 5.1985 23.1346 5.00017 22.4011 5C21.6676 5.00013 20.9477 5.19847 20.3175 5.57405L9.51728 11.9848C8.22823 12.7501 7.4342 14.1643 7.4342 15.6949V28.5167C7.4342 30.0467 8.2284 31.4613 9.51763 32.2266L20.3179 38.6368C20.9481 39.0119 21.6678 39.2101 22.4011 39.2105C23.1345 39.2101 23.8541 39.0119 24.4842 38.6368L35.2848 32.2266C36.5739 31.4613 37.3682 30.0467 37.3682 28.5167V15.6947C37.3682 14.1643 36.5739 12.7501 35.2848 11.9848Z" fill="white"/>
<path fill-rule="evenodd" clip-rule="evenodd" d="M32.4536 29.7563L29.7643 31.3659C29.693 31.4075 29.6406 31.4542 29.6401 31.5399V32.2436C29.6401 32.3296 29.698 32.3654 29.7691 32.3235L32.5001 30.6638C32.5713 30.6222 32.5822 30.5426 32.5828 30.4569V29.8362C32.5828 29.7507 32.5249 29.7148 32.4536 29.7563Z" fill="#47B353"/>
<path fill-rule="evenodd" clip-rule="evenodd" d="M26.7268 23.8327C26.8138 23.7886 26.8855 23.8428 26.8867 23.9567L26.8958 24.8871C27.2853 24.7321 27.6236 24.6907 27.9301 24.7615C27.9967 24.7793 28.0261 24.8698 27.9989 24.9772L27.7941 25.8017C27.7782 25.864 27.7432 25.9269 27.7009 25.9661C27.6851 25.9821 27.6669 25.9956 27.647 26.0061C27.6225 26.0198 27.5939 26.0245 27.5663 26.0193C27.4264 25.9876 27.0937 25.9149 26.5703 26.1801C26.0212 26.458 25.8291 26.9351 25.8329 27.2892C25.8375 27.712 26.0544 27.8401 26.8032 27.853C27.8012 27.8695 28.2324 28.3056 28.2428 29.3107C28.2531 30.2976 27.7262 31.3575 26.9202 32.007L26.938 32.9279C26.939 33.0388 26.867 33.1658 26.78 33.21L26.2345 33.5242C26.1471 33.5683 26.0754 33.5139 26.0742 33.4031L26.0648 32.4972C25.5977 32.6913 25.1242 32.7382 24.8218 32.6168C24.7648 32.5945 24.7403 32.5104 24.7629 32.4146L24.9607 31.5819C24.9764 31.5162 25.0111 31.4505 25.0583 31.4088C25.0751 31.3926 25.0921 31.3801 25.1095 31.3713C25.1408 31.3556 25.1714 31.3522 25.1974 31.3619C25.5232 31.4717 25.9401 31.4204 26.3409 31.2176C26.8501 30.9599 27.1907 30.4406 27.1854 29.9247C27.1804 29.4566 26.9271 29.2621 26.3108 29.2575C25.5263 29.2597 24.7951 29.1051 24.7829 27.9503C24.7732 26.9996 25.2675 26.0102 26.0501 25.3847L26.0403 24.455C26.0391 24.3407 26.1089 24.215 26.1987 24.1698L26.7268 23.8327Z" fill="#242938"/>
</svg>
