<svg width="45" height="44" viewBox="0 0 45 44" fill="none" xmlns="http://www.w3.org/2000/svg">
<path d="M34.3157 0H11.0526C5.3844 0 0.789429 4.59497 0.789429 10.2632V33.5263C0.789429 39.1945 5.3844 43.7895 11.0526 43.7895H34.3157C39.9839 43.7895 44.5789 39.1945 44.5789 33.5263V10.2632C44.5789 4.59497 39.9839 0 34.3157 0Z" fill="#394AAB"/>
<path d="M23.7106 5.64478C29.7219 5.64478 34.9705 8.90949 37.7816 13.7622L37.7542 13.7156L30.6814 17.788C29.288 15.4286 26.7333 13.8363 23.8028 13.8036L23.7106 13.8031C19.2417 13.8031 15.6188 17.4259 15.6188 21.8946C15.6175 23.3031 15.9855 24.6873 16.686 25.9092C18.0808 28.3441 20.7027 29.9866 23.7106 29.9866C26.7369 29.9866 29.3738 28.3233 30.7616 25.8623L30.7279 25.9214L37.79 30.0126C35.0097 34.8243 29.8331 38.0789 23.8916 38.1437L23.7106 38.1448C17.6802 38.1448 12.4167 34.8599 9.61263 29.9815C8.2437 27.5999 7.46045 24.8389 7.46045 21.8946C7.46045 12.9202 14.7357 5.64478 23.7106 5.64478Z" fill="white"/>
</svg>
