<svg width="45" height="44" viewBox="0 0 45 44" fill="none" xmlns="http://www.w3.org/2000/svg">
<path d="M34.4737 0H11.2105C5.54236 0 0.947388 4.59497 0.947388 10.2632V33.5263C0.947388 39.1945 5.54236 43.7895 11.2105 43.7895H34.4737C40.1419 43.7895 44.7369 39.1945 44.7369 33.5263V10.2632C44.7369 4.59497 40.1419 0 34.4737 0Z" fill="#00599C"/>
<path d="M19.893 36.0095C12.0872 36.0095 5.73688 29.6592 5.73688 21.8535C5.73688 14.0477 12.0872 7.69739 19.893 7.69739C24.9297 7.69739 29.6273 10.4079 32.152 14.7709L26.0256 18.3162C24.762 16.1322 22.4119 14.7754 19.893 14.7754C15.9901 14.7754 12.8149 17.9506 12.8149 21.8535C12.8149 25.7563 15.9901 28.9315 19.893 28.9315C22.4121 28.9315 24.7622 27.5747 26.0259 25.3904L32.1524 28.9355C29.6276 33.299 24.93 36.0095 19.893 36.0095Z" fill="white"/>
<path d="M34.0489 21.067H32.4759V19.494H30.9033V21.067H29.3303V22.6398H30.9033V24.2128H32.4759V22.6398H34.0489V21.067ZM39.9473 21.067H38.3743V19.494H36.8017V21.067H35.2287V22.6398H36.8017V24.2128H38.3743V22.6398H39.9473V21.067Z" fill="white"/>
</svg>
