<svg width="45" height="44" viewBox="0 0 45 44" fill="none" xmlns="http://www.w3.org/2000/svg">
<path d="M34.4211 0.210571H11.1579C5.48975 0.210571 0.894775 4.80554 0.894775 10.4737V33.7369C0.894775 39.4051 5.48975 44 11.1579 44H34.4211C40.0893 44 44.6842 39.4051 44.6842 33.7369V10.4737C44.6842 4.80554 40.0893 0.210571 34.4211 0.210571Z" fill="#2396ED"/>
<path d="M25.0452 21.1H28.5889V17.8938H25.0452V21.1ZM20.8267 21.1H24.3702V17.8938H20.8267V21.1ZM16.6924 21.1H20.2361V17.8938H16.6924V21.1ZM12.558 21.1H16.0176V17.8938H12.5582L12.558 21.1ZM8.33951 21.1H11.8832V17.8938H8.33951V21.1ZM12.5582 17.2188H16.0174V14.0128H12.5582V17.2188ZM16.6925 17.2188H20.2361V14.0128H16.6924L16.6925 17.2188ZM20.8267 17.2188H24.3702V14.0128H20.8267V17.2188ZM20.8267 13.3376H24.3702V10.1316H20.8267V13.3376ZM39.8948 19.6659C39.8948 19.6659 38.376 18.2314 35.2543 18.7378C34.9168 16.2909 32.3012 14.8566 32.3012 14.8566C32.3012 14.8566 29.8545 17.8096 31.6263 21.1002C31.1201 21.3533 30.2763 21.6908 29.0107 21.6908H5.80845C5.38646 23.2939 5.38646 33.9247 17.0298 33.9247C25.3827 33.9247 31.6263 30.0437 34.5793 22.9563C38.9667 23.2937 39.8948 19.6659 39.8948 19.6659Z" fill="white"/>
</svg>
