<svg width="44" height="44" viewBox="0 0 44 44" fill="none" xmlns="http://www.w3.org/2000/svg">
<path d="M33.5267 0H10.2633C4.59503 0 0 4.59503 0 10.2633V33.5267C0 39.195 4.59503 43.79 10.2633 43.79H33.5267C39.195 43.79 43.79 39.195 43.79 33.5267V10.2633C43.79 4.59503 39.195 0 33.5267 0Z" fill="#242938"/>
<path d="M21.8952 5.13159C12.4492 5.13159 4.78955 12.7897 4.78955 22.2372C4.78955 29.7949 9.69078 36.2068 16.4875 38.4686C17.3422 38.627 17.6561 38.0976 17.6561 37.6458C17.6561 37.2379 17.6402 35.8905 17.6329 34.4611C12.8741 35.4959 11.87 32.4429 11.87 32.4429C11.0917 30.4656 9.97063 29.94 9.97063 29.94C8.41865 28.8783 10.0876 28.9002 10.0876 28.9002C11.8054 29.0207 12.7099 30.6629 12.7099 30.6629C14.2355 33.278 16.7115 32.5219 17.6876 32.0849C17.8412 30.9792 18.2844 30.2246 18.7736 29.7975C14.9743 29.3649 10.9804 27.8981 10.9804 21.3438C10.9804 19.4762 11.6485 17.9503 12.7427 16.7524C12.565 16.3215 11.9795 14.5817 12.9083 12.2256C12.9083 12.2256 14.3448 11.7659 17.6137 13.9789C18.9782 13.6 20.4414 13.41 21.8952 13.4035C23.3488 13.41 24.8134 13.6 26.1803 13.9791C29.4452 11.7658 30.8797 12.2257 30.8797 12.2257C31.8107 14.5817 31.225 16.3216 31.0473 16.7524C32.1441 17.9503 32.8078 19.4762 32.8078 21.3438C32.8078 27.9139 28.8061 29.3605 24.9971 29.7838C25.6107 30.3148 26.1574 31.3556 26.1574 32.9516C26.1574 35.2403 26.1375 37.0824 26.1375 37.6458C26.1375 38.101 26.4454 38.6344 27.3125 38.4664C34.1054 36.202 39.0005 29.7924 39.0005 22.2372C39.0005 12.7899 31.3419 5.13159 21.8952 5.13159ZM11.1962 29.4988C11.1586 29.5839 11.0248 29.6093 10.903 29.551C10.7789 29.4953 10.7092 29.3793 10.7494 29.2941C10.7862 29.2065 10.9203 29.1822 11.044 29.2409C11.1684 29.2967 11.2392 29.4137 11.1962 29.4988ZM12.0377 30.2496C11.9561 30.3254 11.7965 30.2901 11.6884 30.1706C11.5765 30.0514 11.5554 29.8919 11.6382 29.8151C11.7222 29.7395 11.877 29.7749 11.9891 29.8942C12.1009 30.0149 12.1228 30.1731 12.0377 30.2496ZM12.6148 31.2102C12.5099 31.2831 12.3385 31.2149 12.2327 31.0626C12.1278 30.9106 12.1278 30.7282 12.2349 30.655C12.3411 30.582 12.5099 30.6476 12.6174 30.7987C12.7219 30.9533 12.7219 31.1358 12.6148 31.2102ZM13.591 32.3228C13.4973 32.4261 13.2976 32.3984 13.1514 32.2573C13.0019 32.1194 12.9601 31.9237 13.0542 31.8202C13.1492 31.7166 13.35 31.7458 13.4973 31.8857C13.6457 32.0233 13.6911 32.2205 13.591 32.3228ZM14.8527 32.6983C14.8113 32.8324 14.619 32.8933 14.4252 32.8363C14.2319 32.7776 14.1052 32.6208 14.1444 32.4853C14.1846 32.3505 14.3777 32.287 14.5729 32.3479C14.7661 32.4063 14.8929 32.5621 14.8527 32.6983ZM16.2885 32.8577C16.2933 32.9986 16.1291 33.1156 15.9257 33.1182C15.7211 33.1228 15.5557 33.0085 15.5535 32.8698C15.5535 32.7273 15.7141 32.6115 15.9185 32.6081C16.1221 32.6042 16.2885 32.7174 16.2885 32.8577ZM17.699 32.8036C17.7235 32.9411 17.5822 33.0826 17.3802 33.1202C17.1816 33.1565 16.9977 33.0715 16.9726 32.935C16.9479 32.7939 17.0918 32.6526 17.2901 32.616C17.4924 32.5809 17.6734 32.6637 17.699 32.8036Z" fill="white"/>
</svg>
