<svg width="20" height="20" viewBox="0 0 20 20" fill="none" xmlns="http://www.w3.org/2000/svg">
<path fill-rule="evenodd" clip-rule="evenodd" d="M20 6.29294C20 9.76891 17.1701 12.5869 13.6802 12.5869C13.0442 12.5869 11.5942 12.4409 10.8892 11.8549L10.0073 12.7329C9.48826 13.2499 9.62826 13.4019 9.85926 13.6519C9.95525 13.7569 10.0673 13.8779 10.1543 14.0509C10.1543 14.0509 10.8892 15.0749 10.1543 16.0998C9.71326 16.6848 8.47829 17.5038 7.06832 16.0998L6.77432 16.3918C6.77432 16.3918 7.6553 17.4168 6.92132 18.4418C6.48033 19.0268 5.30436 19.6118 4.27538 18.5878L3.2474 19.6118C2.54142 20.3148 1.67944 19.9048 1.33745 19.6118L0.454466 18.7338C-0.368516 17.9138 0.111473 17.0258 0.454466 16.6838L8.0963 9.07392C8.0963 9.07392 7.36131 7.90393 7.36131 6.29394C7.36131 2.81797 10.1912 0 13.6812 0C17.1711 0 20 2.81797 20 6.29294ZM13.6812 8.48892C14.2645 8.48998 14.8243 8.25935 15.2376 7.84774C15.6509 7.43613 15.8838 6.87724 15.8851 6.29394C15.8846 6.00504 15.8272 5.71906 15.7161 5.45235C15.6051 5.18564 15.4426 4.94341 15.2379 4.73949C15.0333 4.53558 14.7905 4.37397 14.5234 4.26389C14.2562 4.15382 13.9701 4.09744 13.6812 4.09796C13.3923 4.09744 13.1061 4.15382 12.839 4.26389C12.5719 4.37397 12.3291 4.53558 12.1244 4.73949C11.9197 4.94341 11.7573 5.18564 11.6462 5.45235C11.5352 5.71906 11.4777 6.00504 11.4772 6.29394C11.4785 6.87724 11.7115 7.43613 12.1248 7.84774C12.538 8.25935 13.0979 8.48998 13.6812 8.48892Z" fill="white"/>
</svg>
