<svg width="45" height="44" viewBox="0 0 45 44" fill="none" xmlns="http://www.w3.org/2000/svg">
<path d="M34.1053 0.210571H10.8421C5.17395 0.210571 0.578979 4.80554 0.578979 10.4737V33.7369C0.578979 39.4051 5.17395 44 10.8421 44H34.1053C39.7735 44 44.3685 39.4051 44.3685 33.7369V10.4737C44.3685 4.80554 39.7735 0.210571 34.1053 0.210571Z" fill="#242938"/>
<path d="M15.2809 34.4085L19.4768 36.7382H25.8222L31.7581 32.2814L34.4189 25.2924L28.2783 17.8983L26.5386 13.7455L18.0441 14.0493L18.1464 16.379L16.5089 19.4176L13.9503 24.3809L13.4387 28.5337L15.2809 34.4085Z" fill="#ECEFF1"/>
<path d="M32.5768 19.8228C30.9393 17.493 29.6088 16.075 28.8925 13.1377C28.1761 10.2004 29.0972 11.0107 28.4831 8.47822C28.1761 7.16163 27.6643 6.24992 27.1527 5.5409C26.5386 4.83189 25.8222 4.42667 25.4127 4.3254C24.4918 3.81909 22.3425 3.00864 19.6816 4.42667C16.9183 5.84469 17.2253 8.88344 17.7371 15.0622C17.7371 15.4673 17.6346 15.9739 17.43 16.379C17.0207 17.2907 16.3042 18.1008 15.6903 18.81C14.9737 19.8228 14.2574 20.8357 13.7457 21.9498C12.5176 24.2795 11.3917 27.2169 11.6988 28.3311C12.2105 28.2298 18.6582 37.9537 18.6582 38.1562C19.0675 38.0549 20.8073 38.0549 22.3425 38.0549C24.4918 37.9537 25.7198 37.8524 27.4597 38.2575C27.4597 37.9537 27.3573 37.6497 27.3573 37.3459C27.3573 36.7382 27.4597 36.2317 27.562 35.5227C27.6643 35.0162 27.7668 34.5099 27.869 33.9021C26.8456 34.8137 25.0034 35.8266 23.2636 36.1304C21.7284 36.4342 19.1698 35.9279 17.9417 34.4084C18.0441 34.4084 18.2487 34.4084 18.3512 34.3072C18.6582 34.2059 18.9652 34.1046 19.0675 33.9021C19.3746 33.3956 19.1698 32.8891 18.9652 32.5854C18.7605 32.2814 17.2253 31.1672 16.5089 30.5596C15.7926 29.9518 15.3832 29.6479 14.9737 29.2428L14.1551 28.4324C13.9503 28.2298 13.848 28.0273 13.7457 27.9259C13.541 27.4196 13.4387 26.8118 13.541 26.0015C13.6433 24.8873 14.0526 23.9756 14.5644 22.9628C14.7692 22.5576 15.2808 21.7473 15.2808 21.7473C15.2808 21.7473 13.541 26.0015 14.4621 27.3183C14.4621 27.3183 14.5644 26.0015 14.9737 24.6848C15.2808 23.7731 15.7926 22.4563 16.4066 21.7473C17.0207 21.0383 18.5557 18.4047 18.6582 16.784C18.6582 16.075 18.7605 15.366 18.7605 14.8597C18.3512 14.4543 25.5152 13.4417 25.9245 14.5557C26.0268 14.9609 27.4597 18.6073 28.2784 20.5318C28.6877 21.4435 29.1995 22.2538 29.5065 23.2666C29.8136 24.3808 30.0182 25.9001 30.0182 27.4196C30.0182 27.7233 30.0182 28.2298 29.9159 28.7363C30.1206 28.7363 34.112 24.4821 29.4042 20.937C29.4042 20.937 32.2697 22.2538 32.3722 24.8873C32.4745 27.0143 31.5534 28.7363 31.3488 29.0401C31.4511 29.0401 33.4979 29.9518 33.6002 29.9518C34.0097 29.9518 34.8283 29.6479 34.8283 29.6479C34.9308 29.3441 35.2377 28.5336 35.2377 28.2298C35.9542 25.9001 34.2142 22.1525 32.5768 19.8228Z" fill="#263238"/>
<path d="M19.5793 13.1376C20.3141 13.1376 20.9097 12.2305 20.9097 11.1119C20.9097 9.993 20.3141 9.08608 19.5793 9.08608C18.8444 9.08608 18.2488 9.993 18.2488 11.1117C18.2488 12.2304 18.8446 13.1376 19.5793 13.1376ZM24.1847 13.3402C25.1457 13.3402 25.9247 12.2971 25.9247 11.0104C25.9247 9.72377 25.1457 8.68103 24.1847 8.68103C23.2239 8.68103 22.4449 9.72411 22.4449 11.0108C22.4449 12.2974 23.2239 13.3405 24.1847 13.3405" fill="#ECEFF1"/>
<path d="M20.3224 11.2504C20.2374 10.5845 19.8501 10.0843 19.4576 10.1334C19.065 10.1825 18.8158 10.7622 18.901 11.4283C18.986 12.0942 19.3731 12.5944 19.7656 12.5453C20.1582 12.496 20.4074 11.9163 20.3224 11.2504ZM24.0822 12.7324C24.6475 12.7324 25.1056 12.143 25.1056 11.4156C25.1056 10.6885 24.6475 10.0989 24.0822 10.0989C23.5168 10.0989 23.0587 10.6885 23.0587 11.4156C23.0587 12.1428 23.517 12.7324 24.0822 12.7324Z" fill="#212121"/>
<path d="M37.6939 33.6994C37.2846 33.4969 36.5681 33.1929 35.954 32.2814C35.6471 31.7749 35.7494 30.3569 35.2376 29.7491C34.9306 29.3441 34.5213 29.5466 34.419 29.5466C33.4978 29.7491 31.3486 31.1671 29.9158 29.5466C29.7111 29.3441 29.404 29.0401 28.8924 29.0401C28.3806 29.0401 28.1761 29.2426 27.9713 29.6479C27.7666 30.0531 27.7666 30.3569 27.7666 31.3698C27.7666 32.1801 27.7666 33.0917 27.6643 33.8007C27.4595 35.5227 27.1527 36.5356 27.1527 37.5484C27.1527 38.6627 27.4595 39.3717 27.869 39.6755C28.1761 39.9794 28.6877 40.182 29.8135 40.182C30.9392 40.182 31.6556 39.7769 32.3722 39.0677C32.8838 38.5614 33.2931 38.3587 34.726 37.3459C35.8517 36.6369 37.5917 35.7252 37.8985 35.4214C38.1033 35.2189 38.4103 35.1174 38.4103 34.5097C38.4103 34.0034 38.001 33.8007 37.6939 33.6994ZM17.123 34.0034C16.0996 32.3826 15.9971 32.0789 15.2807 31.0659C14.6667 30.0531 13.3362 28.1286 12.5176 28.1286C11.9035 28.1286 11.5964 28.4324 11.1871 28.8376C10.7776 29.2426 10.3683 30.1543 9.65192 30.6608C9.03784 31.1671 7.29806 31.0659 6.88873 31.6736C6.4794 32.2814 7.29806 33.1931 7.29806 34.7124C7.29806 35.3201 6.78627 35.7252 6.68398 36.1304C6.58169 36.6369 6.47923 36.9407 6.68398 37.3459C7.09331 37.9537 7.6051 38.1562 11.0847 38.8652C12.9269 39.2704 14.6667 40.2832 15.7925 40.3847C16.9182 40.4859 18.8628 40.3847 18.8628 37.6497C18.9652 36.0291 18.0441 35.6239 17.123 34.0034ZM19.0675 15.6699C18.4534 15.2647 17.9416 14.8595 17.9416 14.2519C17.9416 13.6442 18.3511 13.4415 18.9652 12.9352C19.0675 12.8337 20.1932 11.8209 21.3191 11.8209C22.4449 11.8209 23.7752 12.5299 24.287 12.7326C25.2081 12.935 26.1291 13.1377 26.0268 13.8467C25.9245 14.8595 25.8222 15.0622 24.7986 15.5687C24.0823 15.7712 22.7518 16.8854 21.8307 16.8854C21.4214 16.8854 20.8073 16.8854 20.398 16.784C20.0909 16.6828 19.5791 16.1763 19.0675 15.6699Z" fill="#FFC107"/>
<path d="M18.8628 14.8596C19.0675 15.0623 19.3746 15.265 19.6816 15.3661C19.8862 15.4673 20.1932 15.5688 20.1932 15.5688H21.1144C21.6261 15.5688 22.3425 15.3661 23.0589 14.961C23.7753 14.6571 23.8777 14.4545 24.3893 14.252C24.9011 13.9481 25.4127 13.6443 25.2082 13.543C25.0034 13.4416 24.7987 13.543 24.0823 13.9481C23.4682 14.3533 22.9566 14.5558 22.3425 14.8598C22.0355 14.961 21.6261 15.1636 21.3191 15.1636H20.398C20.091 15.1636 19.8862 15.0623 19.5792 14.961C19.3746 14.8596 19.2721 14.7583 19.1698 14.7583C18.9653 14.6571 18.5558 14.252 18.3512 14.1506C18.3512 14.1506 18.1464 14.1506 18.2487 14.252L18.8628 14.8596ZM21.9332 12.6313C22.0355 12.8338 22.2402 12.8338 22.3425 12.9351C22.4448 13.0363 22.5471 13.0365 22.5471 13.0365C22.6496 12.9351 22.5471 12.7326 22.4448 12.7326C22.4448 12.53 21.9332 12.53 21.9332 12.6313ZM20.2957 12.8338C20.2957 12.9353 20.5003 13.0365 20.5003 12.9353C20.6027 12.8338 20.705 12.7326 20.8073 12.7326C21.0121 12.6313 20.9096 12.53 20.6027 12.53C20.398 12.6313 20.398 12.7326 20.2957 12.8338Z" fill="#634703"/>
<path d="M30.2229 30.7622V31.066C30.4277 31.4712 30.9393 31.5725 31.3486 31.5725C31.9627 31.5725 32.5768 31.1672 32.8838 30.7622C32.8838 30.6609 32.9861 30.5595 33.0886 30.4582C33.2932 30.1544 33.3956 29.9519 33.4979 29.8505C33.4979 29.8505 33.3956 29.7492 33.3956 29.6479C33.2932 29.4454 32.9861 29.2427 32.5768 29.1415C32.2697 29.0402 31.7581 28.9389 31.5534 28.9389C30.6323 28.8377 30.1206 29.1415 29.8136 29.4454C29.8136 29.4454 29.9159 29.4454 29.9159 29.5467C30.1206 29.7492 30.2229 29.9519 30.2229 30.2557C30.3252 30.4582 30.2229 30.5595 30.2229 30.7622Z" fill="#455A64"/>
</svg>
