<svg width="49" height="40" viewBox="0 0 49 40" fill="white" xmlns="http://www.w3.org/2000/svg">
<path d="M4.9 40C3.5525 40 2.39937 39.5108 1.4406 38.5325C0.481833 37.5542 0.00163333 36.3767 0 35V5C0 3.625 0.4802 2.44833 1.4406 1.47C2.401 0.491666 3.55413 0.00166667 4.9 0H44.1C45.4475 0 46.6014 0.49 47.5618 1.47C48.5222 2.45 49.0016 3.62667 49 5V35C49 36.375 48.5206 37.5525 47.5618 38.5325C46.6031 39.5125 45.4491 40.0017 44.1 40H4.9ZM24.5 22.5L44.1 10V5L24.5 17.5L4.9 5V10L24.5 22.5Z" fill="white"/>
</svg>
