<svg width="45" height="44" viewBox="0 0 45 44" fill="none" xmlns="http://www.w3.org/2000/svg">
<path d="M33.9473 0H10.6842C5.01599 0 0.421021 4.59497 0.421021 10.2632V33.5263C0.421021 39.1945 5.01599 43.7895 10.6842 43.7895H33.9473C39.6155 43.7895 44.2105 39.1945 44.2105 33.5263V10.2632C44.2105 4.59497 39.6155 0 33.9473 0Z" fill="#242938"/>
<path d="M21.1955 4.7987C21.1219 4.80537 20.8878 4.8288 20.677 4.84539C15.8181 5.28346 11.2668 7.90535 8.384 11.935C6.77901 14.1756 5.75218 16.7171 5.36441 19.4093C5.2274 20.3491 5.21063 20.6267 5.21063 21.9007C5.21063 23.1749 5.2274 23.4525 5.36458 24.3921C6.29408 30.8161 10.8656 36.2137 17.0656 38.2135C18.1759 38.5713 19.3463 38.8154 20.6772 38.9625C21.1957 39.0193 23.4361 39.0193 23.9546 38.9625C26.252 38.7083 28.1982 38.1399 30.1178 37.16C30.412 37.0096 30.4689 36.9694 30.4287 36.9361C30.4021 36.9159 29.1479 35.2337 27.6432 33.2006L24.9077 29.5054L21.4798 24.4323C19.5938 21.6433 18.0421 19.3625 18.0286 19.3625C18.0153 19.3592 18.0019 21.6132 17.9953 24.3654C17.9852 29.1843 17.9819 29.3783 17.9217 29.4919C17.8348 29.6557 17.7679 29.7226 17.6273 29.7963C17.5204 29.8497 17.4267 29.8598 16.9218 29.8598H16.3433L16.1893 29.7628C16.094 29.7031 16.0166 29.6188 15.9652 29.5187L15.8951 29.3682L15.9019 22.6633L15.9119 15.9549L16.0155 15.8244C16.0691 15.7543 16.1828 15.664 16.263 15.6205C16.4 15.5536 16.4536 15.547 17.0321 15.547C17.7144 15.547 17.828 15.5736 18.0054 15.7676C18.0555 15.8212 19.9114 18.6168 22.132 21.9844C24.3801 25.3929 26.6296 28.8006 28.8804 32.2073L31.5892 36.3107L31.7264 36.2204C32.9401 35.4311 34.2244 34.3075 35.241 33.137C37.4046 30.6523 38.7992 27.6226 39.2674 24.3921C39.4044 23.4525 39.4212 23.1749 39.4212 21.9007C39.4212 20.6265 39.4044 20.3491 39.2674 19.4093C38.3377 12.9853 33.7662 7.58788 27.5662 5.5881C26.4726 5.23351 25.309 4.98942 24.0047 4.84231C23.6836 4.80879 21.4731 4.77218 21.1957 4.79887M28.1982 15.1457C28.3587 15.2259 28.4892 15.3797 28.5361 15.5401C28.5627 15.6272 28.5694 17.4865 28.5627 21.6766L28.5526 27.6895L27.4926 26.0641L26.4292 24.439V20.0682C26.4292 17.2424 26.4425 15.6539 26.4626 15.5769C26.5161 15.3898 26.6331 15.2427 26.7937 15.1556C26.9307 15.0855 26.981 15.0786 27.506 15.0786C28.001 15.0786 28.0879 15.0855 28.1982 15.1457Z" fill="white"/>
</svg>
