<svg width="16" height="16" viewBox="0 0 16 16" fill="none" xmlns="http://www.w3.org/2000/svg">
<path d="M0.0343445 1.13586L3.50502 13.1928C3.66949 13.9369 4.32291 14.5405 5.13279 14.6525L5.28392 14.6667C5.63058 14.6875 5.97651 14.6156 6.28618 14.4584C6.59585 14.3013 6.85808 14.0645 7.04593 13.7724L7.08594 13.7031L8.33055 11.8612L11.931 15.4615C12.1017 15.6322 12.3043 15.7676 12.5273 15.86C12.7503 15.9524 12.9893 16 13.2307 16C13.4721 16 13.7112 15.9524 13.9342 15.86C14.1572 15.7676 14.3598 15.6322 14.5305 15.4615L15.4613 14.5307C15.8062 14.1858 16 13.7191 16 13.2319L15.9929 13.0701C15.9546 12.6403 15.7664 12.2375 15.4613 11.9323L11.8635 8.33377L13.733 7.07856C14.3785 6.73631 14.7821 5.94246 14.6692 5.13262C14.6143 4.73769 14.4401 4.36895 14.1699 4.07581C13.8996 3.78267 13.5462 3.57914 13.157 3.49249L1.13404 0.0344356C0.981274 -0.00936775 0.819552 -0.0114188 0.665719 0.0284961C0.511886 0.068411 0.371566 0.148832 0.259369 0.261387C0.147172 0.373941 0.0672004 0.514513 0.0277807 0.668466C-0.011639 0.82242 -0.00906552 0.984125 0.0352335 1.13675L0.0343445 1.13586Z" fill="black"/>
</svg>
