<svg width="49" height="49" viewBox="0 0 49 49" fill="white" xmlns="http://www.w3.org/2000/svg">
<path d="M18.6195 0.714228L19.1678 2.94075C17 3.47789 14.9249 4.33679 13.0116 5.48884L11.8386 3.51958C13.9422 2.24544 16.2308 1.29946 18.6195 0.714228ZM30.3805 0.714228L29.8353 2.93768C32.0031 3.47483 34.0782 4.33372 35.9914 5.48578L37.1798 3.51652C35.0672 2.24569 32.775 1.30095 30.3805 0.714228ZM3.5202 11.8315C2.24966 13.939 1.30389 16.2259 0.714723 18.6152L2.94134 19.1665C3.4785 16.9988 4.33744 14.9238 5.48954 13.0106L3.5202 11.8284V11.8315ZM2.2951 24.4985C2.29129 23.385 2.37424 22.273 2.54318 21.1725L0.276751 20.8233C-0.0922503 23.2575 -0.0922503 25.7333 0.276751 28.1675L2.54318 27.8245C2.37424 26.7239 2.29129 25.6119 2.2951 24.4985ZM37.1614 45.4712L35.9853 43.5112C34.0768 44.6655 32.0043 45.5236 29.8384 46.0562L30.3897 48.2858C32.7753 47.6926 35.0581 46.7438 37.1614 45.4712ZM46.708 24.4985C46.708 25.6153 46.6242 26.724 46.4568 27.8245L48.7232 28.1675C49.0923 25.7333 49.0923 23.2575 48.7232 20.8233L46.4568 21.1725C46.6242 22.275 46.708 23.3837 46.708 24.4985ZM48.2883 30.3726L46.0587 29.8213C45.5221 31.9911 44.6631 34.0682 43.5105 35.9833L45.4798 37.1685C46.7525 35.0574 47.6994 32.7663 48.2883 30.3726ZM27.8292 46.4513C25.624 46.7882 23.379 46.7882 21.1739 46.4513L20.8308 48.7237C23.2631 49.0921 25.7369 49.0921 28.1692 48.7237L27.8261 46.4543L27.8292 46.4513ZM42.3772 37.6677C41.0546 39.4627 39.4674 41.0467 37.6698 42.3657L39.0358 44.2186C41.0158 42.7644 42.7658 41.0206 44.2271 39.0459L42.3772 37.6677ZM37.6698 6.62201C39.4676 7.94505 41.0541 9.53149 42.3772 11.3292L44.2271 9.95106C42.7709 7.97527 41.0261 6.22949 39.0511 4.77219L37.6698 6.62201ZM6.62276 11.3292C7.94464 9.53099 9.53187 7.94383 11.3302 6.62201L9.95196 4.77219C7.97608 6.22832 6.23022 7.97307 4.77286 9.948L6.62276 11.3262V11.3292ZM45.4829 11.8284L43.5105 13.0137C44.6651 14.9217 45.5257 16.9951 46.0587 19.1603L48.2883 18.6091C47.6989 16.2208 46.7531 13.935 45.4829 11.8284ZM21.1708 2.54261C23.3758 2.2109 25.6181 2.2109 27.8231 2.54261L28.1661 0.276275C25.7339 -0.0920916 23.26 -0.0920916 20.8278 0.276275L21.1708 2.54261ZM7.79885 44.8342L3.06079 45.9367L4.16337 41.1928L1.93063 40.6721L0.824982 45.413C0.735652 45.7934 0.744801 46.1902 0.851564 46.566C0.958327 46.9417 1.15918 47.2841 1.43512 47.5606C1.71106 47.8372 2.05298 48.0388 2.42855 48.1464C2.80412 48.254 3.20093 48.264 3.58145 48.1755L8.32258 47.0822L7.79885 44.8342ZM2.40536 38.6232L4.64729 39.1378L5.41297 35.8516C4.29444 33.9771 3.46045 31.9469 2.93828 29.8274L0.711661 30.3787C1.21145 32.4086 1.969 34.3662 2.96584 36.2038L2.40536 38.6232ZM13.125 43.5939L9.83864 44.3595L10.3593 46.5983L12.7789 46.0348C14.6165 47.0362 16.5736 47.7927 18.6042 48.2919L19.1555 46.0623C17.0407 45.5359 15.0157 44.6988 13.1464 43.5785L13.125 43.5939ZM24.5 4.59149C21.8857 4.5923 19.2971 5.108 16.8821 6.10917C14.467 7.11033 12.2729 8.57734 10.4248 10.4264C8.57678 12.2755 7.11105 14.4705 6.11133 16.8861C5.11161 19.3016 4.59748 21.8904 4.59828 24.5046C4.6017 28.249 5.66112 31.9165 7.6549 35.0859L5.74069 43.257L13.9029 41.3428C18.3674 44.0223 23.7039 44.8466 28.7689 43.6392C33.8338 42.4317 38.2244 39.2886 40.9999 34.8833C43.7754 30.478 44.715 25.1608 43.6173 20.0712C42.5197 14.9815 39.4722 10.5241 35.1277 7.65411C31.9456 5.64994 28.2608 4.58808 24.5 4.59149Z" fill="white"/>
</svg>
