<svg width="45" height="44" viewBox="0 0 45 44" fill="none" xmlns="http://www.w3.org/2000/svg">
<path d="M34.4211 0H11.1579C5.48975 0 0.894775 4.59497 0.894775 10.2632V33.5263C0.894775 39.1945 5.48975 43.7895 11.1579 43.7895H34.4211C40.0893 43.7895 44.6842 39.1945 44.6842 33.5263V10.2632C44.6842 4.59497 40.0893 0 34.4211 0Z" fill="#FF3E00"/>
<mask id="mask0_41_89" style="mask-type:luminance" maskUnits="userSpaceOnUse" x="9" y="6" width="27" height="32">
<path d="M9.96057 6.5H35.5576V37.2895H9.96057V6.5Z" fill="white"/>
</mask>
<g mask="url(#mask0_41_89)">
<path d="M33.9137 10.5705C31.0696 6.47382 25.4074 5.27372 21.3371 7.85678L14.1614 12.4492C12.2046 13.6757 10.8478 15.6847 10.4564 17.9547C10.117 19.8595 10.4041 21.8164 11.3173 23.5125C10.6913 24.4518 10.2736 25.4956 10.0909 26.5915C9.6735 28.9137 10.2216 31.3143 11.5783 33.2189C14.4486 37.3156 20.0844 38.5157 24.155 35.9327L31.3305 31.3664C33.2875 30.14 34.6443 28.131 35.0356 25.8608C35.3748 23.9561 35.0878 21.9991 34.1746 20.3031C34.8008 19.3637 35.2183 18.3201 35.401 17.2241C35.8446 14.8758 35.2967 12.4752 33.9137 10.5705Z" fill="white"/>
<path d="M20.6325 33.6103C19.5048 33.9028 18.3144 33.842 17.2224 33.436C16.1304 33.03 15.1894 32.2984 14.5267 31.3403C13.6918 30.1922 13.3786 28.7572 13.6133 27.3481C13.6657 27.1132 13.7178 26.9045 13.77 26.6697L13.9005 26.2523L14.2657 26.5132C15.1202 27.1362 16.0726 27.6124 17.0838 27.9221L17.3447 28.0005L17.3187 28.2613C17.2925 28.6267 17.397 29.0181 17.6057 29.3312C18.0232 29.9313 18.7538 30.2183 19.4582 30.0356C19.6149 29.9835 19.7714 29.9313 19.9019 29.853L27.0512 25.2867C27.4166 25.052 27.6514 24.7128 27.7296 24.2953C27.8078 23.8777 27.7036 23.4342 27.4687 23.095C27.0512 22.4948 26.3206 22.2339 25.6161 22.4166C25.4596 22.4688 25.3031 22.521 25.1725 22.5993L22.4328 24.3475C21.9892 24.6345 21.4935 24.8432 20.9717 24.9737C19.8439 25.2662 18.6536 25.2054 17.5616 24.7994C16.4696 24.3934 15.5286 23.6618 14.8659 22.7036C14.057 21.5555 13.7178 20.1204 13.9789 18.7114C14.2135 17.3547 15.0486 16.1282 16.2227 15.3976L23.3982 10.8314C23.8417 10.5444 24.3376 10.3357 24.8595 10.179C25.9872 9.8865 27.1776 9.94737 28.2696 10.3534C29.3616 10.7594 30.3025 11.491 30.9652 12.4492C31.8001 13.5973 32.1132 15.0323 31.8785 16.4414C31.8261 16.6763 31.774 16.8849 31.6958 17.1198L31.5653 17.5372L31.1999 17.2763C30.3455 16.6533 29.3931 16.1771 28.382 15.8674L28.121 15.789L28.1471 15.5282C28.1733 15.1628 28.0688 14.7714 27.8601 14.4582C27.4426 13.8582 26.712 13.5971 26.0076 13.7798C25.8509 13.832 25.6944 13.8842 25.5639 13.9625L18.4146 18.5288C18.0492 18.7636 17.8144 19.1028 17.7362 19.5204C17.658 19.9379 17.7622 20.3814 17.997 20.7206C18.4146 21.3207 19.1452 21.5815 19.8497 21.399C20.0062 21.3469 20.1627 21.2945 20.2933 21.2163L23.033 19.4682C23.4765 19.1812 23.9723 18.9723 24.4941 18.8158C25.6218 18.5233 26.8122 18.5841 27.9042 18.9901C28.9962 19.3961 29.9372 20.1277 30.5999 21.0858C31.4348 22.2339 31.748 23.6691 31.5131 25.078C31.2783 26.4348 30.4434 27.6613 29.2691 28.3918L22.0936 32.9581C21.65 33.2451 21.1543 33.4538 20.6325 33.6103Z" fill="#FF3E00"/>
</g>
</svg>
