<svg width="45" height="44" viewBox="0 0 45 44" fill="none" xmlns="http://www.w3.org/2000/svg">
<path d="M34.3157 0.210571H11.0526C5.3844 0.210571 0.789429 4.80554 0.789429 10.4737V33.7369C0.789429 39.4051 5.3844 44 11.0526 44H34.3157C39.9839 44 44.5789 39.4051 44.5789 33.7369V10.4737C44.5789 4.80554 39.9839 0.210571 34.3157 0.210571Z" fill="#242938"/>
<path fill-rule="evenodd" clip-rule="evenodd" d="M14.9868 19.0263C16.0131 14.921 18.5789 12.8684 22.6842 12.8684C28.8421 12.8684 29.6118 17.4868 32.6907 18.2566C34.7434 18.77 36.5394 18.0002 38.0789 15.9474C37.0526 20.0526 34.4868 22.1053 30.3815 22.1053C24.2236 22.1053 23.4539 17.4868 20.375 16.7171C18.3223 16.2039 16.5263 16.9737 14.9868 19.0263ZM7.28943 28.2631C8.31574 24.1579 10.8815 22.1053 14.9868 22.1053C21.1447 22.1053 21.9144 26.7237 24.9934 27.4934C27.046 28.0068 28.8421 27.2371 30.3815 25.1842C29.3552 29.2895 26.7894 31.3421 22.6842 31.3421C16.5263 31.3421 15.7565 26.7237 12.6776 25.9539C10.625 25.4405 8.8289 26.2103 7.28943 28.2631Z" fill="url(#paint0_linear_41_111)"/>
<defs>
<linearGradient id="paint0_linear_41_111" x1="15.5855" y1="12.8684" x2="28.7565" y2="31.9408" gradientUnits="userSpaceOnUse">
<stop stop-color="#32B1C1"/>
<stop offset="1" stop-color="#14C6B7"/>
</linearGradient>
</defs>
</svg>
