<svg width="44" height="44" viewBox="0 0 44 44" fill="none" xmlns="http://www.w3.org/2000/svg">
<path d="M33.5263 0.210571H10.2632C4.59497 0.210571 0 4.80554 0 10.4737V33.7369C0 39.4051 4.59497 44 10.2632 44H33.5263C39.1945 44 43.7895 39.4051 43.7895 33.7369V10.4737C43.7895 4.80554 39.1945 0.210571 33.5263 0.210571Z" fill="#007ACC"/>
<path d="M9.68329 22.2505L9.66943 24.0438H15.3689V40.2389H19.4004V24.0438H25.0999V22.2853C25.0999 21.3121 25.0792 20.4989 25.0513 20.4781C25.0305 20.4504 21.562 20.4363 17.3569 20.4434L9.70416 20.4642L9.68329 22.2505ZM35.3337 20.4133C36.4457 20.6914 37.2937 21.1849 38.0722 21.991C38.4754 22.4221 39.073 23.2076 39.1218 23.3952C39.1356 23.4508 37.2311 24.7298 36.0774 25.4456C36.0357 25.4735 35.8687 25.2927 35.6811 25.0147C35.1181 24.1945 34.5273 23.8399 33.6236 23.7775C32.2961 23.687 31.4412 24.3822 31.4482 25.5429C31.4482 25.8835 31.4968 26.085 31.6358 26.3631C31.9277 26.9678 32.4699 27.3292 34.1729 28.066C37.3076 29.4146 38.649 30.3042 39.4832 31.5691C40.4146 32.9801 40.6231 35.2322 39.9906 36.9073C39.2956 38.7284 37.5717 39.9656 35.1458 40.3758C34.3953 40.5078 32.6158 40.487 31.8096 40.341C30.051 40.0282 28.3829 39.1594 27.3542 38.0195C26.9511 37.5746 26.1656 36.4139 26.2143 36.3304C26.235 36.3027 26.4158 36.1915 26.6173 36.0733C26.812 35.9621 27.5489 35.5381 28.2439 35.1349L29.502 34.405L29.7661 34.7943C30.1345 35.3573 30.9407 36.1289 31.4273 36.386C32.8243 37.1229 34.7428 37.0185 35.6881 36.1706C36.0912 35.8022 36.258 35.4199 36.258 34.8569C36.258 34.3494 36.1954 34.1271 35.9313 33.7448C35.5907 33.2583 34.8958 32.8481 32.9216 31.9932C30.6627 31.0201 29.6896 30.4154 28.8 29.4561C28.2856 28.9002 27.799 28.0104 27.5975 27.2666C27.4307 26.6481 27.3889 25.098 27.521 24.4725C27.9866 22.29 29.634 20.7678 32.0111 20.3159C32.7827 20.17 34.5759 20.2256 35.3337 20.4133Z" fill="white"/>
</svg>
